<svg width="17" height="28" xmlns="http://www.w3.org/2000/svg"><g stroke="#FFF" fill="none" fill-rule="evenodd"><path d="M7.751 20.517v5.64H4.066a.207.207 0 0 0 0 .414h7.908a.207.207 0 0 0 0-.414H8.39V20.52l.45-.046c3.785-.382 6.72-3.433 6.72-7.457V9.773a.273.273 0 0 0-.545 0V13c0 3.99-3.276 7.004-6.926 7.004-3.658 0-7.069-3.035-7.069-6.988V9.76a.26.26 0 0 0-.52 0V13c0 3.945 3.025 7.06 6.805 7.469l.446.048z"/><rect stroke-width="1.5" x="3.75" y=".75" width="8.5" height="16.25" rx="4.25"/></g></svg>