<svg height="16" xmlns="http://www.w3.org/2000/svg" viewBox="0 0 1000 1000"><path d="M800.3 653.6c-46.5 13.2-81.5 47.1-97.9 88.9l-351.9-94c-.3-14.1-2.2-28.5-6.3-42.7-1.2-4.1-2.6-8.1-4.1-12.1L590 326.9c35 23.3 79.6 31.8 123.3 19.5 79.2-22.4 125.2-104.8 102.7-184C793.6 83.2 711.2 37.2 632 59.7c-79.2 22.4-125.2 104.8-102.7 184 4.5 15.7 11.3 30.1 20 42.9L294.4 526.1c-42.1-37.9-102-54.2-160.5-37.6-90.5 25.6-143 119.8-117.4 210.3 25.6 90.5 119.8 143 210.3 117.4 48.5-13.7 85.9-47.2 106.5-89.2l358.8 73.2c.3 12.4 1.9 25 5.5 37.5 22.4 79.2 104.8 125.2 184 102.7 79.2-22.4 125.2-104.8 102.7-184-22.4-79.3-104.8-125.2-184-102.8z"/></svg>