<svg width="21" height="15" xmlns="http://www.w3.org/2000/svg"><path d="M20.661.077a.643.643 0 0 0-.66.03L14.46 3.778V2.263A2.254 2.254 0 0 0 12.207.01H2.251A2.254 2.254 0 0 0 0 2.263v9.956a2.254 2.254 0 0 0 2.251 2.251h9.956a2.254 2.254 0 0 0 2.252-2.251v-1.516l5.543 3.672a.643.643 0 0 0 .998-.537V.643a.643.643 0 0 0-.339-.566zm-7.489 12.142a.966.966 0 0 1-.965.965H2.251a.966.966 0 0 1-.965-.965V2.263c0-.532.433-.965.965-.965h9.956c.532 0 .965.433.965.965v9.956zm6.542.422l-5.255-3.48V5.32l5.255-3.48v10.8z" fill="#FFF"/></svg>