<svg width="24" height="23" xmlns="http://www.w3.org/2000/svg"><g fill="none" fill-rule="evenodd"><path d="M1.5 1.5L23 22" stroke="#FFF" stroke-width="1.5" stroke-linecap="square"/><path d="M23.661 5.077a.643.643 0 0 0-.66.03L17.46 8.778V7.263a2.254 2.254 0 0 0-2.252-2.252H5.251A2.254 2.254 0 0 0 3 7.263v9.956a2.254 2.254 0 0 0 2.251 2.251h9.956a2.254 2.254 0 0 0 2.252-2.251v-1.516l5.543 3.672a.643.643 0 0 0 .998-.537V5.643a.643.643 0 0 0-.339-.566zm-7.489 12.142a.966.966 0 0 1-.965.965H5.251a.966.966 0 0 1-.965-.965V7.263c0-.532.433-.965.965-.965h9.956c.532 0 .965.433.965.965v9.956zm6.542.422l-5.255-3.48v-3.84l5.255-3.48v10.8z" fill="#FFF" fill-rule="nonzero"/></g></svg>